<svg xmlns="http://www.w3.org/2000/svg" viewBox="0 0 640 360" role="img" aria-hidden="true">
  <rect width="640" height="360" fill="#E8EEE9"/>
  <g fill="none" stroke="#1F534B" stroke-width="1.3" opacity="0.55">
    <path d="M160 180 C220 80 420 80 480 180 C420 280 220 280 160 180 Z"/>
    <path d="M200 180 C250 110 390 110 440 180 C390 250 250 250 200 180 Z"/>
    <ellipse cx="320" cy="180" rx="48" ry="28"/>
  </g>
  <g fill="#1F534B">
    <circle cx="168" cy="132" r="7"/>
    <circle cx="248" cy="96" r="6"/>
    <circle cx="392" cy="96" r="6"/>
    <circle cx="472" cy="132" r="7"/>
    <circle cx="496" cy="220" r="6"/>
    <circle cx="400" cy="268" r="6"/>
    <circle cx="240" cy="268" r="6"/>
    <circle cx="144" cy="220" r="6"/>
    <circle cx="320" cy="180" r="9"/>
  </g>
  <g stroke="#C4A574" stroke-width="1.4" fill="none">
    <path d="M168 132 L320 180 L472 132"/>
    <path d="M144 220 L320 180 L496 220"/>
    <path d="M240 268 L320 180 L400 268"/>
  </g>
</svg>
