<svg xmlns="http://www.w3.org/2000/svg" viewBox="0 0 640 360" role="img" aria-hidden="true">
  <rect width="640" height="360" fill="#E6EEE7"/>
  <g fill="none" stroke="#1F534B" stroke-width="1">
    <rect x="88" y="40" width="56" height="56"/>
    <rect x="144" y="40" width="56" height="56"/>
    <rect x="200" y="40" width="56" height="56"/>
    <rect x="256" y="40" width="56" height="56"/>
    <rect x="312" y="40" width="56" height="56"/>
    <rect x="368" y="40" width="56" height="56"/>
    <rect x="424" y="40" width="56" height="56"/>
    <rect x="480" y="40" width="56" height="56"/>
    <rect x="88" y="96" width="56" height="56"/>
    <rect x="144" y="96" width="56" height="56"/>
    <rect x="200" y="96" width="56" height="56"/>
    <rect x="256" y="96" width="56" height="56"/>
    <rect x="312" y="96" width="56" height="56"/>
    <rect x="368" y="96" width="56" height="56"/>
    <rect x="424" y="96" width="56" height="56"/>
    <rect x="480" y="96" width="56" height="56"/>
    <rect x="88" y="152" width="56" height="56"/>
    <rect x="144" y="152" width="56" height="56"/>
    <rect x="200" y="152" width="56" height="56"/>
    <rect x="256" y="152" width="56" height="56"/>
    <rect x="312" y="152" width="56" height="56"/>
    <rect x="368" y="152" width="56" height="56"/>
    <rect x="424" y="152" width="56" height="56"/>
    <rect x="480" y="152" width="56" height="56"/>
    <rect x="88" y="208" width="56" height="56"/>
    <rect x="144" y="208" width="56" height="56"/>
    <rect x="200" y="208" width="56" height="56"/>
    <rect x="256" y="208" width="56" height="56"/>
    <rect x="312" y="208" width="56" height="56"/>
    <rect x="368" y="208" width="56" height="56"/>
    <rect x="424" y="208" width="56" height="56"/>
    <rect x="480" y="208" width="56" height="56"/>
    <rect x="88" y="264" width="56" height="56"/>
    <rect x="144" y="264" width="56" height="56"/>
    <rect x="200" y="264" width="56" height="56"/>
    <rect x="256" y="264" width="56" height="56"/>
    <rect x="312" y="264" width="56" height="56"/>
    <rect x="368" y="264" width="56" height="56"/>
    <rect x="424" y="264" width="56" height="56"/>
    <rect x="480" y="264" width="56" height="56"/>
  </g>
  <g fill="#1F534B">
    <circle cx="284" cy="180" r="10"/>
    <circle cx="340" cy="180" r="10"/>
    <circle cx="312" cy="124" r="10"/>
    <circle cx="312" cy="236" r="10"/>
    <circle cx="256" cy="124" r="8"/>
    <circle cx="368" cy="124" r="8"/>
    <circle cx="256" cy="236" r="8"/>
    <circle cx="368" cy="236" r="8"/>
    <circle cx="228" cy="180" r="7"/>
    <circle cx="396" cy="180" r="7"/>
    <circle cx="312" cy="68" r="6"/>
    <circle cx="312" cy="292" r="6"/>
  </g>
</svg>
